<svg width="20" height="18" viewBox="0 0 20 18" fill="none" xmlns="http://www.w3.org/2000/svg">
<path fill-rule="evenodd" clip-rule="evenodd" d="M9.64658 17.0489C9.42155 17.2739 9.11638 17.4002 8.79818 17.4002C8.47998 17.4002 8.17481 17.2739 7.94978 17.0489L0.749781 9.84889C0.524816 9.62386 0.398438 9.31869 0.398438 9.00049C0.398437 8.68229 0.524816 8.37712 0.749781 8.15209L7.94978 0.952089C8.1761 0.733499 8.47923 0.612546 8.79386 0.61528C9.1085 0.618014 9.40947 0.744217 9.63196 0.966706C9.85445 1.1892 9.98065 1.49017 9.98339 1.80481C9.98612 2.11944 9.86517 2.42257 9.64658 2.64889L4.49498 7.80049H18.3982C18.7164 7.80049 19.0217 7.92692 19.2467 8.15196C19.4718 8.377 19.5982 8.68223 19.5982 9.00049C19.5982 9.31875 19.4718 9.62397 19.2467 9.84902C19.0217 10.0741 18.7164 10.2005 18.3982 10.2005H4.49498L9.64658 15.3521C9.87155 15.5771 9.99792 15.8823 9.99792 16.2005C9.99792 16.5187 9.87155 16.8239 9.64658 17.0489Z" fill="#3F3F46"/>
</svg>
