<svg width="20" height="18" viewBox="0 0 20 18" fill="none" xmlns="http://www.w3.org/2000/svg">
<path fill-rule="evenodd" clip-rule="evenodd" d="M10.35 0.95193C10.5751 0.726964 10.8802 0.600586 11.1984 0.600586C11.5166 0.600586 11.8218 0.726964 12.0468 0.95193L19.2468 8.15193C19.4718 8.37696 19.5982 8.68213 19.5982 9.00033C19.5982 9.31853 19.4718 9.6237 19.2468 9.84873L12.0468 17.0487C11.8205 17.2673 11.5174 17.3883 11.2028 17.3855C10.8881 17.3828 10.5871 17.2566 10.3647 17.0341C10.1422 16.8116 10.016 16.5106 10.0132 16.196C10.0105 15.8814 10.1314 15.5783 10.35 15.3519L15.5016 10.2003H1.59844C1.28018 10.2003 0.974953 10.0739 0.749909 9.84886C0.524866 9.62381 0.398438 9.31859 0.398438 9.00033C0.398438 8.68207 0.524866 8.37684 0.749909 8.1518C0.974953 7.92676 1.28018 7.80033 1.59844 7.80033H15.5016L10.35 2.64873C10.1251 2.4237 9.99869 2.11853 9.99869 1.80033C9.99869 1.48213 10.1251 1.17696 10.35 0.95193Z" fill="#3F3F46"/>
</svg>
